<svg width="1280" height="640" viewBox="0 0 1280 640" fill="none" xmlns="http://www.w3.org/2000/svg">
  <rect width="1280" height="640" fill="#0D1321"/>
  <rect x="24" y="24" width="1232" height="592" rx="28" fill="url(#bg)"/>
  <circle cx="1080" cy="132" r="180" fill="url(#glowA)" opacity="0.65"/>
  <circle cx="250" cy="520" r="210" fill="url(#glowB)" opacity="0.6"/>

  <rect x="88" y="92" width="510" height="456" rx="24" fill="#101826" stroke="#2B3650"/>
  <rect x="118" y="128" width="450" height="52" rx="14" fill="#172338"/>
  <rect x="118" y="206" width="206" height="248" rx="18" fill="#F25F5C"/>
  <rect x="346" y="206" width="222" height="112" rx="18" fill="#FFE066"/>
  <rect x="346" y="340" width="222" height="114" rx="18" fill="#70C1B3"/>
  <rect x="118" y="476" width="144" height="28" rx="10" fill="#D9E2F2" opacity="0.88"/>
  <rect x="278" y="476" width="186" height="28" rx="10" fill="#D9E2F2" opacity="0.55"/>

  <rect x="654" y="112" width="534" height="160" rx="26" fill="#121D2E" stroke="#31415F"/>
  <text x="702" y="174" fill="#F9FBFF" font-family="Segoe UI, Arial, sans-serif" font-size="54" font-weight="700">CraftMCP</text>
  <text x="702" y="220" fill="#B7C3D9" font-family="Segoe UI, Arial, sans-serif" font-size="24">
    Lightweight local design tooling for humans and AI agents
  </text>

  <rect x="654" y="304" width="250" height="182" rx="22" fill="#101826" stroke="#2B3650"/>
  <rect x="682" y="334" width="110" height="18" rx="9" fill="#9FB3D1"/>
  <rect x="682" y="370" width="194" height="18" rx="9" fill="#4CC9F0"/>
  <rect x="682" y="406" width="168" height="18" rx="9" fill="#9FB3D1" opacity="0.8"/>
  <rect x="682" y="446" width="122" height="16" rx="8" fill="#9FB3D1" opacity="0.55"/>
  <text x="682" y="524" fill="#EAF0FA" font-family="Consolas, monospace" font-size="16">Agent prompt -> structured scene</text>

  <rect x="938" y="304" width="250" height="182" rx="22" fill="#101826" stroke="#2B3650"/>
  <rect x="968" y="336" width="62" height="62" rx="14" fill="#70C1B3"/>
  <rect x="1046" y="336" width="112" height="16" rx="8" fill="#D9E2F2"/>
  <rect x="1046" y="364" width="88" height="16" rx="8" fill="#D9E2F2" opacity="0.7"/>
  <rect x="968" y="420" width="190" height="12" rx="6" fill="#F25F5C"/>
  <rect x="968" y="446" width="166" height="12" rx="6" fill="#FFE066"/>
  <text x="968" y="524" fill="#EAF0FA" font-family="Consolas, monospace" font-size="16">PNG export + JSON context</text>

  <defs>
    <linearGradient id="bg" x1="54" y1="56" x2="1202" y2="584" gradientUnits="userSpaceOnUse">
      <stop stop-color="#11192B"/>
      <stop offset="1" stop-color="#0A0F1A"/>
    </linearGradient>
    <radialGradient id="glowA" cx="0" cy="0" r="1" gradientUnits="userSpaceOnUse" gradientTransform="translate(1080 132) rotate(90) scale(180)">
      <stop stop-color="#4CC9F0"/>
      <stop offset="1" stop-color="#4CC9F0" stop-opacity="0"/>
    </radialGradient>
    <radialGradient id="glowB" cx="0" cy="0" r="1" gradientUnits="userSpaceOnUse" gradientTransform="translate(250 520) rotate(90) scale(210)">
      <stop stop-color="#F25F5C"/>
      <stop offset="1" stop-color="#F25F5C" stop-opacity="0"/>
    </radialGradient>
  </defs>
</svg>
